<?xml version="1.0" standalone="no"?>
<!DOCTYPE svg PUBLIC "-//W3C//DTD SVG 20010904//EN"
 "http://www.w3.org/TR/2001/REC-SVG-20010904/DTD/svg10.dtd">
<svg version="1.0" xmlns="http://www.w3.org/2000/svg"
 width="96.000000pt" height="96.000000pt" viewBox="0 0 96.000000 96.000000"
 preserveAspectRatio="xMidYMid meet">
<metadata>
Created by potrace 1.14, written by Peter Selinger 2001-2017
</metadata>
<g transform="translate(0.000000,96.000000) scale(0.100000,-0.100000)"
fill="#000000" stroke="none">
<path d="M180 875 c0 -2 14 -20 31 -40 l31 -35 -39 -43 c-22 -24 -53 -70 -68
-102 -27 -55 -29 -69 -29 -175 0 -103 2 -121 26 -172 14 -31 45 -77 68 -102
25 -27 37 -46 28 -46 -25 0 -52 -26 -45 -44 5 -14 11 -15 27 -6 22 12 25 7 10
-19 -6 -13 -5 -24 4 -36 13 -18 14 -17 29 11 11 19 16 23 17 12 0 -10 9 -22
20 -28 26 -14 37 8 20 40 -6 12 -10 24 -8 26 3 2 29 -5 59 -16 64 -23 181 -22
247 2 44 16 63 8 42 -17 -13 -16 -7 -45 9 -45 6 0 16 12 24 26 l13 25 12 -26
c10 -22 15 -25 27 -15 10 8 11 18 4 36 -13 35 -12 36 11 24 16 -9 22 -8 27 6
7 18 -20 44 -45 44 -9 0 3 19 28 46 23 25 54 71 68 102 24 51 26 68 26 172 0
102 -3 121 -26 172 -15 31 -45 77 -69 103 l-42 46 19 22 c55 62 78 57 -255 57
-165 0 -301 -2 -301 -5z m268 -327 c13 -21 26 -38 30 -38 4 0 18 16 31 35 15
23 32 35 46 35 12 0 36 3 52 6 27 5 31 3 42 -27 19 -54 14 -131 -12 -180 -70
-132 -257 -129 -318 5 -21 46 -25 127 -8 174 10 30 13 31 62 29 48 -2 54 -5
75 -39z"/>
</g>
</svg>
